# xmcd
#
# Track frame offsets:
#	150
#	16927
#	36297
#	59147
#	73522
#	88657
#	107157
#	127522
#	143232
#	158865
#
# Disc length: 2337 seconds
#
# Revision: 1
# Processed by: cddbd v1.4b41PL1 Copyright (c) Steve Scherf et al.
# Submitted via: audiograbber 1.80
#
DISCID=84091f0a
DTITLE=Southside Johnny and The Asbury Jukes - Super Hits
DYEAR=1900
DGENRE=
TTITLE0=I Don't Want To Go Home
TTITLE1=You Mean So Much To Me
TTITLE2=The Fever
TTITLE3=Love On The Wrong Side Of Town
TTITLE4=Got To Be A Better Way Home
TTITLE5=This Time It's For Real
TTITLE6=Hearts Of Stone
TTITLE7=This Time Baby's Gone For Good
TTITLE8=I Played The Fool
TTITLE9=Some Things Just Don't Change
EXTD=
EXTT0=
EXTT1=
EXTT2=
EXTT3=
EXTT4=
EXTT5=
EXTT6=
EXTT7=
EXTT8=
EXTT9=
PLAYORDER=
